STARTFONT 2.1
COMMENT All rights reversed
FONT atari-5x7tnr
SIZE 9 72 72
FONTBOUNDINGBOX 6 8 0 -1
STARTPROPERTIES 11
FOUNDRY "Fine"
FAMILY_NAME ""
WEIGHT_NAME "Medium"
SLANT "R"
SETWIDTH_NAME "Normal"
SPACING "c"
CHARSET_REGISTRY "ISO-8859"
CHARSET_ENCODING "1"
COPYRIGHT "Public domain font"
FONT_ASCENT  7
FONT_DESCENT 1
ENDPROPERTIES
CHARS 128
STARTCHAR C000
ENCODING 0
SWIDTH 666 0
DWIDTH 6 0
BBX 0 0 0 0
BITMAP
ENDCHAR
STARTCHAR C001
ENCODING 1
SWIDTH 666 0
DWIDTH 6 0
BBX 5 5 0 1
BITMAP
20
70
f8
70
20
ENDCHAR
STARTCHAR C002
ENCODING 2
SWIDTH 666 0
DWIDTH 6 0
BBX 6 8 0 -1
BITMAP
a8
54
a8
54
a8
54
a8
54
ENDCHAR
STARTCHAR C003
ENCODING 3
SWIDTH 666 0
DWIDTH 6 0
BBX 5 7 0 0
BITMAP
a0
e0
a0
00
38
10
10
ENDCHAR
STARTCHAR C004
ENCODING 4
SWIDTH 666 0
DWIDTH 6 0
BBX 5 8 0 -1
BITMAP
e0
80
c0
80
38
20
30
20
ENDCHAR
STARTCHAR C005
ENCODING 5
SWIDTH 666 0
DWIDTH 6 0
BBX 5 7 0 0
BITMAP
60
80
80
70
28
30
28
ENDCHAR
STARTCHAR C006
ENCODING 6
SWIDTH 666 0
DWIDTH 6 0
BBX 5 8 0 -1
BITMAP
80
80
e0
00
38
20
30
20
ENDCHAR
STARTCHAR C007
ENCODING 7
SWIDTH 666 0
DWIDTH 6 0
BBX 4 4 0 3
BITMAP
60
90
90
60
ENDCHAR
STARTCHAR C010
ENCODING 8
SWIDTH 666 0
DWIDTH 6 0
BBX 5 7 0 0
BITMAP
20
20
f8
20
20
00
f8
ENDCHAR
STARTCHAR C011
ENCODING 9
SWIDTH 666 0
DWIDTH 6 0
BBX 5 7 0 0
BITMAP
d0
b0
90
20
20
20
38
ENDCHAR
STARTCHAR C012
ENCODING 10
SWIDTH 666 0
DWIDTH 6 0
BBX 5 8 0 -1
BITMAP
a0
a0
a0
40
18
08
08
08
ENDCHAR
STARTCHAR C013
ENCODING 11
SWIDTH 666 0
DWIDTH 6 0
BBX 3 4 0 3
BITMAP
20
20
20
e0
ENDCHAR
STARTCHAR C014
ENCODING 12
SWIDTH 666 0
DWIDTH 6 0
BBX 4 5 0 -1
BITMAP
f0
10
10
10
10
ENDCHAR
STARTCHAR C015
ENCODING 13
SWIDTH 666 0
DWIDTH 6 0
BBX 3 5 3 -1
BITMAP
e0
80
80
80
80
ENDCHAR
STARTCHAR C016
ENCODING 14
SWIDTH 666 0
DWIDTH 6 0
BBX 4 4 2 3
BITMAP
80
80
80
f0
ENDCHAR
STARTCHAR C017
ENCODING 15
SWIDTH 666 0
DWIDTH 6 0
BBX 6 8 0 -1
BITMAP
20
20
20
fc
20
20
20
20
ENDCHAR
STARTCHAR C020
ENCODING 16
SWIDTH 666 0
DWIDTH 6 0
BBX 6 1 0 6
BITMAP
fc
ENDCHAR
STARTCHAR C021
ENCODING 17
SWIDTH 666 0
DWIDTH 6 0
BBX 6 1 0 3
BITMAP
fc
ENDCHAR
STARTCHAR C022
ENCODING 18
SWIDTH 666 0
DWIDTH 6 0
BBX 6 1 0 1
BITMAP
fc
ENDCHAR
STARTCHAR C023
ENCODING 19
SWIDTH 666 0
DWIDTH 6 0
BBX 6 1 0 0
BITMAP
fc
ENDCHAR
STARTCHAR C024
ENCODING 20
SWIDTH 666 0
DWIDTH 6 0
BBX 6 1 0 -1
BITMAP
fc
ENDCHAR
STARTCHAR C025
ENCODING 21
SWIDTH 666 0
DWIDTH 6 0
BBX 3 8 3 -1
BITMAP
80
80
80
e0
80
80
80
80
ENDCHAR
STARTCHAR C026
ENCODING 22
SWIDTH 666 0
DWIDTH 6 0
BBX 3 8 0 -1
BITMAP
20
20
20
e0
20
20
20
20
ENDCHAR
STARTCHAR C027
ENCODING 23
SWIDTH 666 0
DWIDTH 6 0
BBX 6 4 0 3
BITMAP
20
20
20
fc
ENDCHAR
STARTCHAR C030
ENCODING 24
SWIDTH 666 0
DWIDTH 6 0
BBX 6 5 0 -1
BITMAP
fc
20
20
20
20
ENDCHAR
STARTCHAR C031
ENCODING 25
SWIDTH 666 0
DWIDTH 6 0
BBX 1 8 2 -1
BITMAP
80
80
80
80
80
80
80
80
ENDCHAR
STARTCHAR C032
ENCODING 26
SWIDTH 666 0
DWIDTH 6 0
BBX 3 7 0 0
BITMAP
20
40
80
40
20
00
e0
ENDCHAR
STARTCHAR C033
ENCODING 27
SWIDTH 666 0
DWIDTH 6 0
BBX 3 7 0 0
BITMAP
80
40
20
40
80
00
e0
ENDCHAR
STARTCHAR C034
ENCODING 28
SWIDTH 666 0
DWIDTH 6 0
BBX 5 5 0 0
BITMAP
f8
50
50
50
48
ENDCHAR
STARTCHAR C035
ENCODING 29
SWIDTH 666 0
DWIDTH 6 0
BBX 5 5 0 1
BITMAP
10
f8
20
f8
40
ENDCHAR
STARTCHAR C036
ENCODING 30
SWIDTH 666 0
DWIDTH 6 0
BBX 5 7 0 0
BITMAP
30
48
40
f0
40
48
b0
ENDCHAR
STARTCHAR C037
ENCODING 31
SWIDTH 666 0
DWIDTH 6 0
BBX 2 2 2 2
BITMAP
c0
c0
ENDCHAR
STARTCHAR C040
ENCODING 32
SWIDTH 666 0
DWIDTH 6 0
BBX 0 0 0 0
BITMAP
ENDCHAR
STARTCHAR C041
ENCODING 33
SWIDTH 666 0
DWIDTH 6 0
BBX 3 7 1 0
BITMAP
40
e0
e0
40
40
00
40
ENDCHAR
STARTCHAR C042
ENCODING 34
SWIDTH 666 0
DWIDTH 6 0
BBX 3 2 1 5
BITMAP
a0
a0
ENDCHAR
STARTCHAR C043
ENCODING 35
SWIDTH 666 0
DWIDTH 6 0
BBX 5 7 0 0
BITMAP
50
50
f8
50
f8
50
50
ENDCHAR
STARTCHAR C044
ENCODING 36
SWIDTH 666 0
DWIDTH 6 0
BBX 5 7 0 0
BITMAP
20
78
a0
70
28
f0
20
ENDCHAR
STARTCHAR C045
ENCODING 37
SWIDTH 666 0
DWIDTH 6 0
BBX 5 7 0 0
BITMAP
88
08
10
20
40
80
88
ENDCHAR
STARTCHAR C046
ENCODING 38
SWIDTH 666 0
DWIDTH 6 0
BBX 5 7 0 0
BITMAP
60
90
90
60
a8
90
68
ENDCHAR
STARTCHAR C047
ENCODING 39
SWIDTH 666 0
DWIDTH 6 0
BBX 2 3 1 4
BITMAP
40
40
80
ENDCHAR
STARTCHAR C050
ENCODING 40
SWIDTH 666 0
DWIDTH 6 0
BBX 3 7 2 0
BITMAP
60
80
80
80
80
80
60
ENDCHAR
STARTCHAR C051
ENCODING 41
SWIDTH 666 0
DWIDTH 6 0
BBX 3 7 0 0
BITMAP
c0
20
20
20
20
20
c0
ENDCHAR
STARTCHAR C052
ENCODING 42
SWIDTH 666 0
DWIDTH 6 0
BBX 5 5 0 2
BITMAP
a8
70
20
70
a8
ENDCHAR
STARTCHAR C053
ENCODING 43
SWIDTH 666 0
DWIDTH 6 0
BBX 5 5 0 1
BITMAP
20
20
f8
20
20
ENDCHAR
STARTCHAR C054
ENCODING 44
SWIDTH 666 0
DWIDTH 6 0
BBX 2 3 1 0
BITMAP
40
40
80
ENDCHAR
STARTCHAR C055
ENCODING 45
SWIDTH 666 0
DWIDTH 6 0
BBX 5 1 0 3
BITMAP
f8
ENDCHAR
STARTCHAR C056
ENCODING 46
SWIDTH 666 0
DWIDTH 6 0
BBX 1 2 2 0
BITMAP
80
80
ENDCHAR
STARTCHAR C057
ENCODING 47
SWIDTH 666 0
DWIDTH 6 0
BBX 5 7 0 0
BITMAP
08
08
10
20
40
80
80
ENDCHAR
STARTCHAR C060
ENCODING 48
SWIDTH 666 0
DWIDTH 6 0
BBX 5 7 0 0
BITMAP
70
88
a8
a8
a8
88
70
ENDCHAR
STARTCHAR C061
ENCODING 49
SWIDTH 666 0
DWIDTH 6 0
BBX 3 7 1 0
BITMAP
40
c0
40
40
40
40
e0
ENDCHAR
STARTCHAR C062
ENCODING 50
SWIDTH 666 0
DWIDTH 6 0
BBX 5 7 0 0
BITMAP
70
88
08
10
20
48
f8
ENDCHAR
STARTCHAR C063
ENCODING 51
SWIDTH 666 0
DWIDTH 6 0
BBX 5 7 0 0
BITMAP
70
88
08
30
08
88
70
ENDCHAR
STARTCHAR C064
ENCODING 52
SWIDTH 666 0
DWIDTH 6 0
BBX 5 7 0 0
BITMAP
10
30
50
90
f8
10
10
ENDCHAR
STARTCHAR C065
ENCODING 53
SWIDTH 666 0
DWIDTH 6 0
BBX 5 7 0 0
BITMAP
78
80
80
f0
08
88
70
ENDCHAR
STARTCHAR C066
ENCODING 54
SWIDTH 666 0
DWIDTH 6 0
BBX 5 7 0 0
BITMAP
30
40
80
b0
c8
88
70
ENDCHAR
STARTCHAR C067
ENCODING 55
SWIDTH 666 0
DWIDTH 6 0
BBX 5 7 0 0
BITMAP
f8
08
08
10
20
20
20
ENDCHAR
STARTCHAR C070
ENCODING 56
SWIDTH 666 0
DWIDTH 6 0
BBX 5 7 0 0
BITMAP
70
88
88
70
88
88
70
ENDCHAR
STARTCHAR C071
ENCODING 57
SWIDTH 666 0
DWIDTH 6 0
BBX 5 7 0 0
BITMAP
70
88
98
68
08
10
60
ENDCHAR
STARTCHAR C072
ENCODING 58
SWIDTH 666 0
DWIDTH 6 0
BBX 1 4 2 1
BITMAP
80
00
00
80
ENDCHAR
STARTCHAR C073
ENCODING 59
SWIDTH 666 0
DWIDTH 6 0
BBX 2 5 1 0
BITMAP
40
00
40
40
80
ENDCHAR
STARTCHAR C074
ENCODING 60
SWIDTH 666 0
DWIDTH 6 0
BBX 4 7 1 0
BITMAP
10
20
40
80
40
20
10
ENDCHAR
STARTCHAR C075
ENCODING 61
SWIDTH 666 0
DWIDTH 6 0
BBX 5 3 0 2
BITMAP
f8
00
f8
ENDCHAR
STARTCHAR C076
ENCODING 62
SWIDTH 666 0
DWIDTH 6 0
BBX 4 7 0 0
BITMAP
80
40
20
10
20
40
80
ENDCHAR
STARTCHAR C077
ENCODING 63
SWIDTH 666 0
DWIDTH 6 0
BBX 5 7 0 0
BITMAP
70
88
88
10
20
00
20
ENDCHAR
STARTCHAR C100
ENCODING 64
SWIDTH 666 0
DWIDTH 6 0
BBX 5 6 0 0
BITMAP
70
98
a8
98
80
78
ENDCHAR
STARTCHAR C101
ENCODING 65
SWIDTH 666 0
DWIDTH 6 0
BBX 5 7 0 0
BITMAP
20
50
50
70
88
88
88
ENDCHAR
STARTCHAR C102
ENCODING 66
SWIDTH 666 0
DWIDTH 6 0
BBX 5 7 0 0
BITMAP
f0
48
48
70
48
48
f0
ENDCHAR
STARTCHAR C103
ENCODING 67
SWIDTH 666 0
DWIDTH 6 0
BBX 5 7 0 0
BITMAP
30
48
80
80
80
48
30
ENDCHAR
STARTCHAR C104
ENCODING 68
SWIDTH 666 0
DWIDTH 6 0
BBX 5 7 0 0
BITMAP
f0
48
48
48
48
48
f0
ENDCHAR
STARTCHAR C105
ENCODING 69
SWIDTH 666 0
DWIDTH 6 0
BBX 5 7 0 0
BITMAP
f8
48
40
70
40
48
f8
ENDCHAR
STARTCHAR C106
ENCODING 70
SWIDTH 666 0
DWIDTH 6 0
BBX 5 7 0 0
BITMAP
f8
40
40
70
40
40
e0
ENDCHAR
STARTCHAR C107
ENCODING 71
SWIDTH 666 0
DWIDTH 6 0
BBX 5 7 0 0
BITMAP
38
48
80
98
88
48
38
ENDCHAR
STARTCHAR C110
ENCODING 72
SWIDTH 666 0
DWIDTH 6 0
BBX 5 7 0 0
BITMAP
88
88
88
f8
88
88
88
ENDCHAR
STARTCHAR C111
ENCODING 73
SWIDTH 666 0
DWIDTH 6 0
BBX 5 7 0 0
BITMAP
f8
20
20
20
20
20
f8
ENDCHAR
STARTCHAR C112
ENCODING 74
SWIDTH 666 0
DWIDTH 6 0
BBX 5 7 0 0
BITMAP
78
10
10
10
10
90
60
ENDCHAR
STARTCHAR C113
ENCODING 75
SWIDTH 666 0
DWIDTH 6 0
BBX 5 7 0 0
BITMAP
88
90
a0
c0
a0
90
88
ENDCHAR
STARTCHAR C114
ENCODING 76
SWIDTH 666 0
DWIDTH 6 0
BBX 5 7 0 0
BITMAP
e0
40
40
40
40
48
f8
ENDCHAR
STARTCHAR C115
ENCODING 77
SWIDTH 666 0
DWIDTH 6 0
BBX 5 7 0 0
BITMAP
88
d8
a8
88
88
88
88
ENDCHAR
STARTCHAR C116
ENCODING 78
SWIDTH 666 0
DWIDTH 6 0
BBX 5 7 0 0
BITMAP
88
c8
a8
98
88
88
88
ENDCHAR
STARTCHAR C117
ENCODING 79
SWIDTH 666 0
DWIDTH 6 0
BBX 5 7 0 0
BITMAP
70
88
88
88
88
88
70
ENDCHAR
STARTCHAR C120
ENCODING 80
SWIDTH 666 0
DWIDTH 6 0
BBX 5 7 0 0
BITMAP
f0
48
48
70
40
40
e0
ENDCHAR
STARTCHAR C121
ENCODING 81
SWIDTH 666 0
DWIDTH 6 0
BBX 5 8 0 -1
BITMAP
70
88
88
88
88
88
70
18
ENDCHAR
STARTCHAR C122
ENCODING 82
SWIDTH 666 0
DWIDTH 6 0
BBX 5 7 0 0
BITMAP
f0
48
48
70
48
48
e8
ENDCHAR
STARTCHAR C123
ENCODING 83
SWIDTH 666 0
DWIDTH 6 0
BBX 5 7 0 0
BITMAP
78
88
80
70
08
88
f0
ENDCHAR
STARTCHAR C124
ENCODING 84
SWIDTH 666 0
DWIDTH 6 0
BBX 5 7 0 0
BITMAP
f8
a8
20
20
20
20
70
ENDCHAR
STARTCHAR C125
ENCODING 85
SWIDTH 666 0
DWIDTH 6 0
BBX 5 7 0 0
BITMAP
88
88
88
88
88
88
70
ENDCHAR
STARTCHAR C126
ENCODING 86
SWIDTH 666 0
DWIDTH 6 0
BBX 5 7 0 0
BITMAP
88
88
88
50
50
50
20
ENDCHAR
STARTCHAR C127
ENCODING 87
SWIDTH 666 0
DWIDTH 6 0
BBX 5 7 0 0
BITMAP
88
88
88
a8
a8
d8
88
ENDCHAR
STARTCHAR C130
ENCODING 88
SWIDTH 666 0
DWIDTH 6 0
BBX 5 7 0 0
BITMAP
88
88
50
20
50
88
88
ENDCHAR
STARTCHAR C131
ENCODING 89
SWIDTH 666 0
DWIDTH 6 0
BBX 5 7 0 0
BITMAP
88
88
50
50
20
20
70
ENDCHAR
STARTCHAR C132
ENCODING 90
SWIDTH 666 0
DWIDTH 6 0
BBX 5 7 0 0
BITMAP
f8
88
10
20
40
88
f8
ENDCHAR
STARTCHAR C133
ENCODING 91
SWIDTH 666 0
DWIDTH 6 0
BBX 3 7 2 0
BITMAP
e0
80
80
80
80
80
e0
ENDCHAR
STARTCHAR C134
ENCODING 92
SWIDTH 666 0
DWIDTH 6 0
BBX 5 7 0 0
BITMAP
80
80
40
20
10
08
08
ENDCHAR
STARTCHAR C135
ENCODING 93
SWIDTH 666 0
DWIDTH 6 0
BBX 3 7 0 0
BITMAP
e0
20
20
20
20
20
e0
ENDCHAR
STARTCHAR C136
ENCODING 94
SWIDTH 666 0
DWIDTH 6 0
BBX 5 3 0 4
BITMAP
20
50
88
ENDCHAR
STARTCHAR C137
ENCODING 95
SWIDTH 666 0
DWIDTH 6 0
BBX 5 1 0 0
BITMAP
f8
ENDCHAR
STARTCHAR C140
ENCODING 96
SWIDTH 666 0
DWIDTH 6 0
BBX 2 3 1 4
BITMAP
80
80
40
ENDCHAR
STARTCHAR C141
ENCODING 97
SWIDTH 666 0
DWIDTH 6 0
BBX 5 5 0 0
BITMAP
70
08
78
88
78
ENDCHAR
STARTCHAR C142
ENCODING 98
SWIDTH 666 0
DWIDTH 6 0
BBX 5 7 0 0
BITMAP
c0
40
50
68
48
68
50
ENDCHAR
STARTCHAR C143
ENCODING 99
SWIDTH 666 0
DWIDTH 6 0
BBX 5 5 0 0
BITMAP
70
88
80
88
70
ENDCHAR
STARTCHAR C144
ENCODING 100
SWIDTH 666 0
DWIDTH 6 0
BBX 5 7 0 0
BITMAP
10
10
50
b0
90
b0
58
ENDCHAR
STARTCHAR C145
ENCODING 101
SWIDTH 666 0
DWIDTH 6 0
BBX 5 5 0 0
BITMAP
70
88
f8
80
70
ENDCHAR
STARTCHAR C146
ENCODING 102
SWIDTH 666 0
DWIDTH 6 0
BBX 5 7 0 0
BITMAP
30
48
40
f0
40
40
e0
ENDCHAR
STARTCHAR C147
ENCODING 103
SWIDTH 666 0
DWIDTH 6 0
BBX 5 6 0 -1
BITMAP
78
90
60
70
88
70
ENDCHAR
STARTCHAR C150
ENCODING 104
SWIDTH 666 0
DWIDTH 6 0
BBX 5 7 0 0
BITMAP
c0
40
70
48
48
48
e8
ENDCHAR
STARTCHAR C151
ENCODING 105
SWIDTH 666 0
DWIDTH 6 0
BBX 3 7 1 0
BITMAP
40
00
40
c0
40
40
e0
ENDCHAR
STARTCHAR C152
ENCODING 106
SWIDTH 666 0
DWIDTH 6 0
BBX 4 8 1 -1
BITMAP
10
00
10
30
10
10
90
60
ENDCHAR
STARTCHAR C153
ENCODING 107
SWIDTH 666 0
DWIDTH 6 0
BBX 5 7 0 0
BITMAP
c0
40
48
50
60
50
c8
ENDCHAR
STARTCHAR C154
ENCODING 108
SWIDTH 666 0
DWIDTH 6 0
BBX 3 7 1 0
BITMAP
c0
40
40
40
40
40
e0
ENDCHAR
STARTCHAR C155
ENCODING 109
SWIDTH 666 0
DWIDTH 6 0
BBX 5 5 0 0
BITMAP
d0
a8
a8
a8
a8
ENDCHAR
STARTCHAR C156
ENCODING 110
SWIDTH 666 0
DWIDTH 6 0
BBX 5 5 0 0
BITMAP
b0
48
48
48
e8
ENDCHAR
STARTCHAR C157
ENCODING 111
SWIDTH 666 0
DWIDTH 6 0
BBX 5 5 0 0
BITMAP
70
88
88
88
70
ENDCHAR
STARTCHAR C160
ENCODING 112
SWIDTH 666 0
DWIDTH 6 0
BBX 5 6 0 -1
BITMAP
f0
48
48
70
40
e0
ENDCHAR
STARTCHAR C161
ENCODING 113
SWIDTH 666 0
DWIDTH 6 0
BBX 5 6 0 -1
BITMAP
78
90
90
70
10
38
ENDCHAR
STARTCHAR C162
ENCODING 114
SWIDTH 666 0
DWIDTH 6 0
BBX 5 5 0 0
BITMAP
b0
48
40
40
40
ENDCHAR
STARTCHAR C163
ENCODING 115
SWIDTH 666 0
DWIDTH 6 0
BBX 5 5 0 0
BITMAP
78
80
70
08
f0
ENDCHAR
STARTCHAR C164
ENCODING 116
SWIDTH 666 0
DWIDTH 6 0
BBX 4 7 0 0
BITMAP
40
40
f0
40
40
50
20
ENDCHAR
STARTCHAR C165
ENCODING 117
SWIDTH 666 0
DWIDTH 6 0
BBX 5 5 0 0
BITMAP
88
88
88
98
68
ENDCHAR
STARTCHAR C166
ENCODING 118
SWIDTH 666 0
DWIDTH 6 0
BBX 5 5 0 0
BITMAP
88
88
50
50
20
ENDCHAR
STARTCHAR C167
ENCODING 119
SWIDTH 666 0
DWIDTH 6 0
BBX 5 5 0 0
BITMAP
88
88
a8
a8
50
ENDCHAR
STARTCHAR C170
ENCODING 120
SWIDTH 666 0
DWIDTH 6 0
BBX 5 5 0 0
BITMAP
88
50
20
50
88
ENDCHAR
STARTCHAR C171
ENCODING 121
SWIDTH 666 0
DWIDTH 6 0
BBX 5 6 0 -1
BITMAP
88
88
50
20
40
80
ENDCHAR
STARTCHAR C172
ENCODING 122
SWIDTH 666 0
DWIDTH 6 0
BBX 5 5 0 0
BITMAP
f8
90
20
48
f8
ENDCHAR
STARTCHAR C173
ENCODING 123
SWIDTH 666 0
DWIDTH 6 0
BBX 4 7 1 0
BITMAP
30
40
40
80
40
40
30
ENDCHAR
STARTCHAR C174
ENCODING 124
SWIDTH 666 0
DWIDTH 6 0
BBX 1 7 2 0
BITMAP
80
80
80
00
80
80
80
ENDCHAR
STARTCHAR C175
ENCODING 125
SWIDTH 666 0
DWIDTH 6 0
BBX 4 7 0 0
BITMAP
c0
20
20
10
20
20
c0
ENDCHAR
STARTCHAR C176
ENCODING 126
SWIDTH 666 0
DWIDTH 6 0
BBX 6 2 0 4
BITMAP
64
98
ENDCHAR
STARTCHAR C177
ENCODING 127
SWIDTH 666 0
DWIDTH 6 0
BBX 6 8 0 -1
BITMAP
fc
fc
fc
fc
fc
fc
fc
fc
ENDCHAR
ENDFONT
